<?xml version="1.0" standalone="no"?>
<svg xmlns:xlink="http://www.w3.org/1999/xlink" id="wave" style="transform:rotate(180deg); transition: 0.3s" viewBox="0 0 1440 490" version="1.1" xmlns="http://www.w3.org/2000/svg"><defs><linearGradient id="sw-gradient-0" x1="0" x2="0" y1="1" y2="0"><stop stop-color="rgba(243, 106, 62, 1)" offset="0%"/><stop stop-color="rgba(255, 179, 11, 1)" offset="100%"/></linearGradient></defs><path style="transform:translate(0, 0px); opacity:1" fill="url(#sw-gradient-0)" d="M0,245L120,228.7C240,212,480,180,720,179.7C960,180,1200,212,1440,253.2C1680,294,1920,343,2160,351.2C2400,359,2640,327,2880,326.7C3120,327,3360,359,3600,383.8C3840,408,4080,425,4320,424.7C4560,425,4800,408,5040,383.8C5280,359,5520,327,5760,302.2C6000,278,6240,261,6480,220.5C6720,180,6960,114,7200,114.3C7440,114,7680,180,7920,228.7C8160,278,8400,310,8640,277.7C8880,245,9120,147,9360,130.7C9600,114,9840,180,10080,187.8C10320,196,10560,147,10800,130.7C11040,114,11280,131,11520,187.8C11760,245,12000,343,12240,318.5C12480,294,12720,147,12960,114.3C13200,82,13440,163,13680,220.5C13920,278,14160,310,14400,285.8C14640,261,14880,180,15120,138.8C15360,98,15600,98,15840,81.7C16080,65,16320,33,16560,24.5C16800,16,17040,33,17160,40.8L17280,49L17280,490L17160,490C17040,490,16800,490,16560,490C16320,490,16080,490,15840,490C15600,490,15360,490,15120,490C14880,490,14640,490,14400,490C14160,490,13920,490,13680,490C13440,490,13200,490,12960,490C12720,490,12480,490,12240,490C12000,490,11760,490,11520,490C11280,490,11040,490,10800,490C10560,490,10320,490,10080,490C9840,490,9600,490,9360,490C9120,490,8880,490,8640,490C8400,490,8160,490,7920,490C7680,490,7440,490,7200,490C6960,490,6720,490,6480,490C6240,490,6000,490,5760,490C5520,490,5280,490,5040,490C4800,490,4560,490,4320,490C4080,490,3840,490,3600,490C3360,490,3120,490,2880,490C2640,490,2400,490,2160,490C1920,490,1680,490,1440,490C1200,490,960,490,720,490C480,490,240,490,120,490L0,490Z"/></svg>